<svg width="24" height="24" viewBox="0 0 24 24" fill="none" xmlns="http://www.w3.org/2000/svg">
  <path fill-rule="evenodd" clip-rule="evenodd" d="M12 2C6.48 2 2 6.48 2 12c0 4.41 2.69 8.19 6.5 9.74V22l2.2-2.2c.59.14 1.21.2 1.8.2 5.52 0 10-4.48 10-10S17.52 2 12 2zm0 2c4.41 0 8 3.59 8 8s-3.59 8-8 8c-.59 0-1.17-.05-1.72-.15-.35-.06-.69-.15-1.02-.26-.31-.1-.62-.22-.92-.36-.3-.14-.59-.3-.86-.48-.28-.18-.54-.38-.79-.6l-.01-.01c-.23-.21-.45-.43-.66-.66l-.01-.01c-.22-.24-.42-.49-.61-.75-.19-.26-.37-.53-.53-.81-.17-.28-.32-.57-.46-.87-.14-.3-.26-.61-.36-.92-.1-.31-.19-.63-.26-.95C6.05 13.17 6 12.59 6 12c0-4.41 3.59-8 8-8zm-4 5c0-.55.45-1 1-1h6c.55 0 1 .45 1 1s-.45 1-1 1h-6c-.55 0-1-.45-1-1zm1 3c0-.55.45-1 1-1h4c.55 0 1 .45 1 1s-.45 1-1 1h-4c-.55 0-1-.45-1-1zm1 3c0-.55.45-1 1-1h2c.55 0 1 .45 1 1s-.45 1-1 1h-2c-.55 0-1-.45-1-1z" fill="#637381"/>
</svg>
