<svg version="1.0" xmlns="http://www.w3.org/2000/svg"
 width="251.000000pt" height="258.000000pt" viewBox="0 0 251.000000 258.000000"
 preserveAspectRatio="xMidYMid meet">
<g transform="translate(0.000000,258.000000) scale(0.100000,-0.100000)"
fill="#000000" stroke="none">
<path d="M458 2342 l-58 -3 0 -955 0 -955 53 3 c50 3 52 4 55 34 2 25 -1 33
-17 37 -21 5 -21 6 -21 886 l0 881 415 0 415 0 0 -195 0 -195 198 -2 197 -3 3
-569 2 -568 -84 -149 c-46 -81 -81 -150 -78 -153 3 -4 23 -6 45 -6 l40 0 -6
-37 c-16 -95 -124 -162 -218 -134 -51 15 -105 63 -121 107 -12 35 -18 38 -55
28 -27 -7 -29 -24 -7 -70 44 -92 149 -151 250 -141 133 14 219 106 231 248 6
66 5 69 -16 69 -11 0 -21 6 -21 13 1 18 65 122 75 120 4 -1 23 -29 42 -63 33
-58 34 -62 15 -66 -16 -5 -20 -17 -25 -80 -13 -177 -130 -299 -299 -312 -156
-11 -286 80 -335 235 -17 54 -21 57 -61 46 -21 -5 -23 -10 -17 -42 20 -108
118 -230 222 -279 52 -24 70 -27 168 -27 102 0 115 2 170 29 115 57 207 184
222 305 l6 51 45 0 c47 0 48 2 27 53 -6 15 0 17 65 17 63 0 72 2 77 20 5 18
14 20 74 20 l69 0 0 795 0 795 -70 0 -70 0 0 35 0 34 -72 3 -73 3 -3 33 -3 32
-239 0 -239 0 -35 35 -35 35 -153 0 c-84 0 -274 2 -423 3 -148 1 -296 1 -327
-1z m1049 -254 c68 -68 123 -126 123 -130 0 -5 -58 -8 -130 -8 l-130 0 0 130
c0 72 3 130 7 130 4 0 63 -55 130 -122z m333 -678 c0 -434 -2 -790 -4 -790 -2
0 -18 25 -35 55 l-31 55 0 597 0 598 -130 130 c-71 71 -130 133 -130 137 0 5
74 8 165 8 l165 0 0 -790z m148 -57 l2 -773 -40 0 -40 0 0 768 c0 423 3 772 7
776 4 4 21 6 38 4 l30 -3 3 -772z m140 -20 l-3 -718 -30 0 -30 0 -3 718 -2
717 35 0 35 0 -2 -717z"/>
<!-- Additional paths removed for brevity -->
</g>
</svg>
